<?xml version="1.0" standalone="no"?>
<!DOCTYPE svg PUBLIC "-//W3C//DTD SVG 20010904//EN"
 "http://www.w3.org/TR/2001/REC-SVG-20010904/DTD/svg10.dtd">
<svg version="1.0" xmlns="http://www.w3.org/2000/svg"
 width="112.000000pt" height="115.000000pt" viewBox="0 0 112.000000 115.000000"
 preserveAspectRatio="xMidYMid meet">

<g transform="translate(0.000000,115.000000) scale(0.100000,-0.100000)"
fill="#000000" stroke="none">
<path d="M227 1134 c-4 -4 -7 -119 -7 -255 l0 -248 -97 -3 c-97 -3 -98 -3 -98
-28 0 -24 3 -25 69 -28 l69 -3 -6 -97 c-9 -152 -48 -270 -117 -357 -59 -75
-20 -106 43 -35 76 83 121 215 133 390 l7 100 43 0 42 0 4 -221 c3 -219 3
-221 27 -240 23 -19 25 -19 55 -1 39 23 116 117 116 142 0 36 -42 23 -80 -25
-19 -24 -41 -44 -47 -44 -10 -1 -13 44 -13 194 l0 194 63 3 c59 3 62 4 62 28
l0 25 -112 3 -113 3 -2 252 c-3 218 -5 252 -18 255 -9 1 -19 0 -23 -4z"/>
<path d="M518 1099 c-22 -12 -38 -70 -38 -134 0 -58 10 -78 36 -73 16 3 19 14
22 68 4 102 0 100 267 100 209 0 223 -1 240 -20 17 -19 17 -23 1 -81 -18 -65
-15 -79 15 -79 25 0 49 53 56 126 5 47 3 55 -20 78 l-26 26 -268 0 c-159 0
-275 -5 -285 -11z"/>
<path d="M50 1031 c0 -11 11 -64 24 -119 13 -55 27 -129 31 -166 5 -49 12 -69
25 -76 48 -25 47 63 -1 269 -11 47 -24 90 -30 98 -17 20 -49 16 -49 -6z"/>
<path d="M396 1042 c-2 -4 -12 -51 -21 -104 -9 -53 -24 -130 -34 -170 -9 -41
-16 -79 -13 -86 7 -23 42 -13 53 16 25 62 64 285 60 340 -1 13 -37 17 -45 4z"/>
<path d="M722 930 l-27 -60 -81 0 c-85 0 -113 -12 -100 -45 4 -12 23 -15 81
-15 41 0 75 -2 75 -4 0 -3 -25 -56 -56 -120 -81 -165 -71 -186 92 -186 l84 0
0 -105 0 -105 -129 0 c-95 0 -131 -3 -134 -12 -11 -34 4 -38 134 -38 l129 0 0
-110 c0 -90 3 -112 15 -116 35 -14 45 14 45 122 l0 103 128 3 c123 3 127 4
130 26 3 22 3 22 -127 22 l-131 0 0 105 0 105 94 0 c97 0 125 11 112 45 -4 12
-25 15 -106 15 l-100 0 0 63 c0 70 -9 91 -36 85 -16 -3 -19 -14 -22 -76 l-3
-72 -75 0 c-54 0 -76 4 -80 14 -3 8 20 64 50 125 l56 111 150 0 c125 0 152 3
156 15 4 8 1 22 -6 30 -10 12 -40 15 -146 15 l-133 0 19 45 c22 50 18 75 -12
75 -14 0 -27 -16 -46 -60z"/>
</g>
</svg>
